<svg xmlns="http://www.w3.org/2000/svg" viewBox="0 0 480 300">
  <rect width="480" height="300" fill="#fffaf0"/>
  <path d="M18 52 H462 M18 250 H462" stroke="#eee5d3" stroke-width="2"/>
  <g stroke-linecap="round" stroke-linejoin="round">
    <rect x="28" y="57" width="92" height="74" rx="0" fill="#eee5d3" stroke="#20201f" stroke-width="2" opacity="1"/><circle cx="45" cy="75" r="4" fill="#b53a2e" stroke="#20201f" stroke-width="1" opacity="1"/><circle cx="73" cy="75" r="4" fill="#28547f" stroke="#20201f" stroke-width="1" opacity="1"/><circle cx="101" cy="75" r="4" fill="#e0b53f" stroke="#20201f" stroke-width="1" opacity="1"/><circle cx="45" cy="110" r="4" fill="#b53a2e" stroke="#20201f" stroke-width="1" opacity="1"/><circle cx="73" cy="110" r="4" fill="#28547f" stroke="#20201f" stroke-width="1" opacity="1"/><circle cx="101" cy="110" r="4" fill="#e0b53f" stroke="#20201f" stroke-width="1" opacity="1"/><rect x="144" y="57" width="92" height="74" rx="0" fill="#eee5d3" stroke="#20201f" stroke-width="2" opacity="1"/><circle cx="161" cy="75" r="4" fill="#28547f" stroke="#20201f" stroke-width="1" opacity="1"/><circle cx="189" cy="75" r="4" fill="#e0b53f" stroke="#20201f" stroke-width="1" opacity="1"/><circle cx="217" cy="75" r="4" fill="#b53a2e" stroke="#20201f" stroke-width="1" opacity="1"/><circle cx="161" cy="110" r="4" fill="#28547f" stroke="#20201f" stroke-width="1" opacity="1"/><circle cx="189" cy="110" r="4" fill="#e0b53f" stroke="#20201f" stroke-width="1" opacity="1"/><circle cx="217" cy="110" r="4" fill="#b53a2e" stroke="#20201f" stroke-width="1" opacity="1"/><rect x="260" y="57" width="92" height="74" rx="0" fill="#eee5d3" stroke="#20201f" stroke-width="2" opacity="1"/><circle cx="277" cy="75" r="4" fill="#e0b53f" stroke="#20201f" stroke-width="1" opacity="1"/><circle cx="305" cy="75" r="4" fill="#b53a2e" stroke="#20201f" stroke-width="1" opacity="1"/><circle cx="333" cy="75" r="4" fill="#28547f" stroke="#20201f" stroke-width="1" opacity="1"/><circle cx="277" cy="110" r="4" fill="#e0b53f" stroke="#20201f" stroke-width="1" opacity="1"/><circle cx="305" cy="110" r="4" fill="#b53a2e" stroke="#20201f" stroke-width="1" opacity="1"/><circle cx="333" cy="110" r="4" fill="#28547f" stroke="#20201f" stroke-width="1" opacity="1"/><polygon points="80,158 350,158 286,219 145,219" fill="#eee5d3" stroke="#20201f" stroke-width="3" opacity="1"/><line x1="75" y1="133" x2="151" y2="186" stroke="#b53a2e" stroke-width="3" opacity="1"/><polygon points="151,186 140.00461166827193,185.6815106995546 146.90109877872737,175.7922084279581" fill="#b53a2e" stroke="#b53a2e" stroke-width="1" opacity="1"/><line x1="191" y1="133" x2="203" y2="186" stroke="#28547f" stroke-width="3" opacity="1"/><polygon points="203,186 195.088718113248,178.35725056616732 206.84760885484553,175.6948602095792" fill="#28547f" stroke="#28547f" stroke-width="1" opacity="1"/><line x1="307" y1="133" x2="255" y2="186" stroke="#e0b53f" stroke-width="3" opacity="1"/><polygon points="255,186 257.1408697864492,175.2103440018938 265.7469240946824,183.65401992695286" fill="#e0b53f" stroke="#e0b53f" stroke-width="1" opacity="1"/><line x1="288" y1="219" x2="343" y2="211" stroke="#20201f" stroke-width="4" opacity="1"/><polygon points="343,211 334.76243424143945,218.28989097129656 333.02701966143127,206.35891573374045" fill="#20201f" stroke="#20201f" stroke-width="1" opacity="1"/><rect x="354" y="184" width="83" height="55" rx="0" fill="#fffaf0" stroke="#20201f" stroke-width="3" opacity="1"/><path d="M370 211 l12 13 l36 -31" fill="none" stroke="#b53a2e" stroke-width="5" opacity="1"/>
  </g>
  <g stroke="#20201f" stroke-width="2">
    <rect x="0" y="0" width="116" height="12" fill="#28547f"/>
    <rect x="116" y="0" width="174" height="12" fill="#fffaf0"/>
    <rect x="290" y="0" width="70" height="12" fill="#28547f"/>
    <rect x="360" y="0" width="120" height="12" fill="#b53a2e"/>
  </g>
</svg>
