<svg xmlns="http://www.w3.org/2000/svg" viewBox="0 0 480 300">
  <rect width="480" height="300" fill="#fffaf0"/>
  <path d="M18 52 H462 M18 250 H462" stroke="#eee5d3" stroke-width="2"/>
  <g stroke-linecap="round" stroke-linejoin="round">
    <circle cx="40" cy="67" r="9" fill="#28547f" stroke="#20201f" stroke-width="2" opacity="1"/><circle cx="92" cy="67" r="9" fill="#e0b53f" stroke="#20201f" stroke-width="2" opacity="1"/><circle cx="144" cy="67" r="9" fill="#b53a2e" stroke="#20201f" stroke-width="2" opacity="1"/><circle cx="196" cy="67" r="9" fill="#28547f" stroke="#20201f" stroke-width="2" opacity="1"/><circle cx="248" cy="67" r="9" fill="#e0b53f" stroke="#20201f" stroke-width="2" opacity="1"/><circle cx="300" cy="67" r="9" fill="#b53a2e" stroke="#20201f" stroke-width="2" opacity="1"/><circle cx="352" cy="67" r="9" fill="#28547f" stroke="#20201f" stroke-width="2" opacity="1"/><circle cx="404" cy="67" r="9" fill="#e0b53f" stroke="#20201f" stroke-width="2" opacity="1"/><line x1="35" y1="130" x2="445" y2="130" stroke="#20201f" stroke-width="3" opacity="1"/><line x1="40" y1="122" x2="40" y2="139" stroke="#20201f" stroke-width="2" opacity="1"/><line x1="90" y1="122" x2="90" y2="139" stroke="#20201f" stroke-width="2" opacity="1"/><line x1="140" y1="122" x2="140" y2="139" stroke="#20201f" stroke-width="2" opacity="1"/><line x1="190" y1="122" x2="190" y2="139" stroke="#20201f" stroke-width="2" opacity="1"/><line x1="240" y1="122" x2="240" y2="139" stroke="#20201f" stroke-width="2" opacity="1"/><line x1="290" y1="122" x2="290" y2="139" stroke="#20201f" stroke-width="2" opacity="1"/><line x1="340" y1="122" x2="340" y2="139" stroke="#20201f" stroke-width="2" opacity="1"/><line x1="390" y1="122" x2="390" y2="139" stroke="#20201f" stroke-width="2" opacity="1"/><line x1="440" y1="122" x2="440" y2="139" stroke="#20201f" stroke-width="2" opacity="1"/><path d="M91 84 C91 109 143 103 143 120 M247 84 C247 113 347 103 347 120" fill="none" stroke="#b53a2e" stroke-width="4" stroke-dasharray="6 6" opacity="1"/><path d="M84 176 V163 H201 V176" fill="none" stroke="#28547f" stroke-width="4" opacity="1"/><text x="143" y="201" fill="#28547f" font-family="ui-monospace, monospace" font-size="19" font-weight="700" text-anchor="middle" dominant-baseline="middle">delay ≤ Δ</text><path d="M238 176 V163 H397 V176" fill="none" stroke="#e0b53f" stroke-width="5" opacity="1"/><text x="318" y="201" fill="#20201f" font-family="ui-monospace, monospace" font-size="18" font-weight="700" text-anchor="middle" dominant-baseline="middle">latency bound</text>
  </g>
  <g stroke="#20201f" stroke-width="2">
    <rect x="0" y="0" width="116" height="12" fill="#e0b53f"/>
    <rect x="116" y="0" width="174" height="12" fill="#fffaf0"/>
    <rect x="290" y="0" width="70" height="12" fill="#28547f"/>
    <rect x="360" y="0" width="120" height="12" fill="#28547f"/>
  </g>
</svg>
