<svg xmlns="http://www.w3.org/2000/svg" viewBox="0 0 480 300">
  <rect width="480" height="300" fill="#fffaf0"/>
  <path d="M18 52 H462 M18 250 H462" stroke="#eee5d3" stroke-width="2"/>
  <g stroke-linecap="round" stroke-linejoin="round">
    <line x1="35" y1="100" x2="122" y2="55" stroke="#b53a2e" stroke-width="5" opacity="1"/><circle cx="42" cy="121" r="5" fill="#28547f" stroke="#20201f" stroke-width="1" opacity="1"/><circle cx="55" cy="102" r="5" fill="#28547f" stroke="#20201f" stroke-width="1" opacity="1"/><circle cx="68" cy="83" r="5" fill="#28547f" stroke="#20201f" stroke-width="1" opacity="1"/><circle cx="81" cy="121" r="5" fill="#28547f" stroke="#20201f" stroke-width="1" opacity="1"/><circle cx="94" cy="102" r="5" fill="#e0b53f" stroke="#20201f" stroke-width="1" opacity="1"/><circle cx="107" cy="83" r="5" fill="#e0b53f" stroke="#20201f" stroke-width="1" opacity="1"/><circle cx="120" cy="121" r="5" fill="#e0b53f" stroke="#20201f" stroke-width="1" opacity="1"/><line x1="222" y1="56" x2="188" y2="104" stroke="#20201f" stroke-width="3" opacity="1"/><line x1="222" y1="56" x2="257" y2="104" stroke="#20201f" stroke-width="3" opacity="1"/><line x1="188" y1="104" x2="168" y2="147" stroke="#20201f" stroke-width="3" opacity="1"/><line x1="188" y1="104" x2="207" y2="147" stroke="#20201f" stroke-width="3" opacity="1"/><line x1="257" y1="104" x2="239" y2="147" stroke="#20201f" stroke-width="3" opacity="1"/><line x1="257" y1="104" x2="277" y2="147" stroke="#20201f" stroke-width="3" opacity="1"/><circle cx="222" cy="56" r="8" fill="#e0b53f" stroke="#20201f" stroke-width="2" opacity="1"/><circle cx="188" cy="104" r="8" fill="#28547f" stroke="#20201f" stroke-width="2" opacity="1"/><circle cx="257" cy="104" r="8" fill="#b53a2e" stroke="#20201f" stroke-width="2" opacity="1"/><circle cx="168" cy="147" r="8" fill="#e0b53f" stroke="#20201f" stroke-width="2" opacity="1"/><circle cx="207" cy="147" r="8" fill="#28547f" stroke="#20201f" stroke-width="2" opacity="1"/><circle cx="239" cy="147" r="8" fill="#b53a2e" stroke="#20201f" stroke-width="2" opacity="1"/><circle cx="277" cy="147" r="8" fill="#e0b53f" stroke="#20201f" stroke-width="2" opacity="1"/><line x1="347" y1="66" x2="390" y2="66" stroke="#777166" stroke-width="1" opacity="0.65"/><line x1="347" y1="66" x2="390" y2="108" stroke="#777166" stroke-width="1" opacity="0.65"/><line x1="347" y1="66" x2="390" y2="150" stroke="#777166" stroke-width="1" opacity="0.65"/><line x1="347" y1="66" x2="390" y2="192" stroke="#777166" stroke-width="1" opacity="0.65"/><line x1="347" y1="108" x2="390" y2="66" stroke="#777166" stroke-width="1" opacity="0.65"/><line x1="347" y1="108" x2="390" y2="108" stroke="#777166" stroke-width="1" opacity="0.65"/><line x1="347" y1="108" x2="390" y2="150" stroke="#777166" stroke-width="1" opacity="0.65"/><line x1="347" y1="108" x2="390" y2="192" stroke="#777166" stroke-width="1" opacity="0.65"/><line x1="347" y1="150" x2="390" y2="66" stroke="#777166" stroke-width="1" opacity="0.65"/><line x1="347" y1="150" x2="390" y2="108" stroke="#777166" stroke-width="1" opacity="0.65"/><line x1="347" y1="150" x2="390" y2="150" stroke="#777166" stroke-width="1" opacity="0.65"/><line x1="347" y1="150" x2="390" y2="192" stroke="#777166" stroke-width="1" opacity="0.65"/><line x1="347" y1="192" x2="390" y2="66" stroke="#777166" stroke-width="1" opacity="0.65"/><line x1="347" y1="192" x2="390" y2="108" stroke="#777166" stroke-width="1" opacity="0.65"/><line x1="347" y1="192" x2="390" y2="150" stroke="#777166" stroke-width="1" opacity="0.65"/><line x1="347" y1="192" x2="390" y2="192" stroke="#777166" stroke-width="1" opacity="0.65"/><line x1="390" y1="66" x2="433" y2="66" stroke="#777166" stroke-width="1" opacity="0.65"/><line x1="390" y1="66" x2="433" y2="108" stroke="#777166" stroke-width="1" opacity="0.65"/><line x1="390" y1="66" x2="433" y2="150" stroke="#777166" stroke-width="1" opacity="0.65"/><line x1="390" y1="66" x2="433" y2="192" stroke="#777166" stroke-width="1" opacity="0.65"/><line x1="390" y1="108" x2="433" y2="66" stroke="#777166" stroke-width="1" opacity="0.65"/><line x1="390" y1="108" x2="433" y2="108" stroke="#777166" stroke-width="1" opacity="0.65"/><line x1="390" y1="108" x2="433" y2="150" stroke="#777166" stroke-width="1" opacity="0.65"/><line x1="390" y1="108" x2="433" y2="192" stroke="#777166" stroke-width="1" opacity="0.65"/><line x1="390" y1="150" x2="433" y2="66" stroke="#777166" stroke-width="1" opacity="0.65"/><line x1="390" y1="150" x2="433" y2="108" stroke="#777166" stroke-width="1" opacity="0.65"/><line x1="390" y1="150" x2="433" y2="150" stroke="#777166" stroke-width="1" opacity="0.65"/><line x1="390" y1="150" x2="433" y2="192" stroke="#777166" stroke-width="1" opacity="0.65"/><line x1="390" y1="192" x2="433" y2="66" stroke="#777166" stroke-width="1" opacity="0.65"/><line x1="390" y1="192" x2="433" y2="108" stroke="#777166" stroke-width="1" opacity="0.65"/><line x1="390" y1="192" x2="433" y2="150" stroke="#777166" stroke-width="1" opacity="0.65"/><line x1="390" y1="192" x2="433" y2="192" stroke="#777166" stroke-width="1" opacity="0.65"/><circle cx="347" cy="66" r="6" fill="#b53a2e" stroke="#20201f" stroke-width="1" opacity="1"/><circle cx="347" cy="108" r="6" fill="#28547f" stroke="#20201f" stroke-width="1" opacity="1"/><circle cx="347" cy="150" r="6" fill="#e0b53f" stroke="#20201f" stroke-width="1" opacity="1"/><circle cx="347" cy="192" r="6" fill="#b53a2e" stroke="#20201f" stroke-width="1" opacity="1"/><circle cx="390" cy="66" r="6" fill="#28547f" stroke="#20201f" stroke-width="1" opacity="1"/><circle cx="390" cy="108" r="6" fill="#e0b53f" stroke="#20201f" stroke-width="1" opacity="1"/><circle cx="390" cy="150" r="6" fill="#b53a2e" stroke="#20201f" stroke-width="1" opacity="1"/><circle cx="390" cy="192" r="6" fill="#28547f" stroke="#20201f" stroke-width="1" opacity="1"/><circle cx="433" cy="66" r="6" fill="#e0b53f" stroke="#20201f" stroke-width="1" opacity="1"/><circle cx="433" cy="108" r="6" fill="#b53a2e" stroke="#20201f" stroke-width="1" opacity="1"/><circle cx="433" cy="150" r="6" fill="#28547f" stroke="#20201f" stroke-width="1" opacity="1"/><circle cx="433" cy="192" r="6" fill="#e0b53f" stroke="#20201f" stroke-width="1" opacity="1"/><circle cx="255" cy="226" r="27" fill="none" stroke="#20201f" stroke-width="6" opacity="1"/><line x1="274" y1="246" x2="301" y2="270" stroke="#20201f" stroke-width="7" opacity="1"/>
  </g>
  <g stroke="#20201f" stroke-width="2">
    <rect x="0" y="0" width="116" height="12" fill="#b53a2e"/>
    <rect x="116" y="0" width="174" height="12" fill="#fffaf0"/>
    <rect x="290" y="0" width="70" height="12" fill="#28547f"/>
    <rect x="360" y="0" width="120" height="12" fill="#e0b53f"/>
  </g>
</svg>
