<svg xmlns="http://www.w3.org/2000/svg" viewBox="0 0 480 300">
  <rect width="480" height="300" fill="#fffaf0"/>
  <path d="M18 52 H462 M18 250 H462" stroke="#eee5d3" stroke-width="2"/>
  <g stroke-linecap="round" stroke-linejoin="round">
    <rect x="35" y="45" width="250" height="205" rx="0" fill="#fffaf0" stroke="#20201f" stroke-width="3" opacity="1"/><circle cx="65" cy="75" r="7" fill="#b53a2e" stroke="#20201f" stroke-width="2" opacity="1"/><circle cx="104" cy="62" r="7" fill="#28547f" stroke="#20201f" stroke-width="2" opacity="1"/><circle cx="145" cy="88" r="7" fill="#28547f" stroke="#20201f" stroke-width="2" opacity="1"/><circle cx="215" cy="73" r="7" fill="#b53a2e" stroke="#20201f" stroke-width="2" opacity="1"/><circle cx="248" cy="113" r="7" fill="#28547f" stroke="#20201f" stroke-width="2" opacity="1"/><circle cx="74" cy="153" r="7" fill="#28547f" stroke="#20201f" stroke-width="2" opacity="1"/><circle cx="122" cy="136" r="7" fill="#b53a2e" stroke="#20201f" stroke-width="2" opacity="1"/><circle cx="183" cy="145" r="7" fill="#28547f" stroke="#20201f" stroke-width="2" opacity="1"/><circle cx="234" cy="193" r="7" fill="#28547f" stroke="#20201f" stroke-width="2" opacity="1"/><circle cx="91" cy="220" r="7" fill="#b53a2e" stroke="#20201f" stroke-width="2" opacity="1"/><circle cx="164" cy="215" r="7" fill="#28547f" stroke="#20201f" stroke-width="2" opacity="1"/><circle cx="150" cy="150" r="11" fill="#e0b53f" stroke="#20201f" stroke-width="3" opacity="1"/><circle cx="150" cy="150" r="56" fill="none" stroke="#e0b53f" stroke-width="4" stroke-dasharray="6 6" opacity="1"/><line x1="178" y1="171" x2="244" y2="224" stroke="#b53a2e" stroke-width="4" opacity="1"/><polygon points="244,224 233.0512687855177,222.93920558399813 240.6002784475711,213.53855204257314" fill="#b53a2e" stroke="#b53a2e" stroke-width="1" opacity="1"/><circle cx="250" cy="230" r="11" fill="#fffaf0" stroke="#b53a2e" stroke-width="4" opacity="1"/><rect x="334" y="74" width="94" height="23" rx="0" fill="#28547f" stroke="#20201f" stroke-width="2" opacity="1"/><rect x="334" y="117" width="82" height="23" rx="0" fill="#e0b53f" stroke="#20201f" stroke-width="2" opacity="1"/><rect x="334" y="160" width="70" height="23" rx="0" fill="#b53a2e" stroke="#20201f" stroke-width="2" opacity="1"/><rect x="334" y="203" width="58" height="23" rx="0" fill="#eee5d3" stroke="#20201f" stroke-width="2" opacity="1"/>
  </g>
  <g stroke="#20201f" stroke-width="2">
    <rect x="0" y="0" width="116" height="12" fill="#e0b53f"/>
    <rect x="116" y="0" width="174" height="12" fill="#fffaf0"/>
    <rect x="290" y="0" width="70" height="12" fill="#28547f"/>
    <rect x="360" y="0" width="120" height="12" fill="#28547f"/>
  </g>
</svg>
