<svg xmlns="http://www.w3.org/2000/svg" viewBox="0 0 480 300">
  <rect width="480" height="300" fill="#fffaf0"/>
  <path d="M18 52 H462 M18 250 H462" stroke="#eee5d3" stroke-width="2"/>
  <g stroke-linecap="round" stroke-linejoin="round">
    <line x1="120" y1="58" x2="72" y2="112" stroke="#20201f" stroke-width="3" opacity="1"/><line x1="120" y1="58" x2="169" y2="112" stroke="#20201f" stroke-width="3" opacity="1"/><line x1="72" y1="112" x2="43" y2="174" stroke="#20201f" stroke-width="3" opacity="1"/><line x1="72" y1="112" x2="95" y2="174" stroke="#20201f" stroke-width="3" opacity="1"/><line x1="169" y1="112" x2="145" y2="174" stroke="#20201f" stroke-width="3" opacity="1"/><line x1="169" y1="112" x2="198" y2="174" stroke="#20201f" stroke-width="3" opacity="1"/><circle cx="120" cy="58" r="15" fill="#e0b53f" stroke="#20201f" stroke-width="3" opacity="1"/><circle cx="72" cy="112" r="11" fill="#fffaf0" stroke="#20201f" stroke-width="3" opacity="1"/><circle cx="169" cy="112" r="11" fill="#28547f" stroke="#20201f" stroke-width="3" opacity="1"/><circle cx="43" cy="174" r="11" fill="#b53a2e" stroke="#20201f" stroke-width="3" opacity="1"/><circle cx="95" cy="174" r="11" fill="#e0b53f" stroke="#20201f" stroke-width="3" opacity="1"/><circle cx="145" cy="174" r="11" fill="#fffaf0" stroke="#20201f" stroke-width="3" opacity="1"/><circle cx="198" cy="174" r="11" fill="#28547f" stroke="#20201f" stroke-width="3" opacity="1"/><line x1="218" y1="133" x2="260" y2="133" stroke="#b53a2e" stroke-width="4" opacity="1"/><polygon points="260,133 250.79891085093294,139.0282633047106 250.79891085093294,126.9717366952894" fill="#b53a2e" stroke="#b53a2e" stroke-width="1" opacity="1"/><rect x="278" y="72" width="130" height="24" rx="0" fill="#eee5d3" stroke="#20201f" stroke-width="2" opacity="1"/><rect x="278" y="72" width="92" height="24" rx="0" fill="#28547f" stroke="#20201f" stroke-width="2" opacity="1"/><rect x="278" y="114" width="130" height="24" rx="0" fill="#eee5d3" stroke="#20201f" stroke-width="2" opacity="1"/><rect x="278" y="114" width="48" height="24" rx="0" fill="#e0b53f" stroke="#20201f" stroke-width="2" opacity="1"/><rect x="278" y="156" width="130" height="24" rx="0" fill="#eee5d3" stroke="#20201f" stroke-width="2" opacity="1"/><rect x="278" y="156" width="112" height="24" rx="0" fill="#b53a2e" stroke="#20201f" stroke-width="2" opacity="1"/><rect x="278" y="198" width="130" height="24" rx="0" fill="#eee5d3" stroke="#20201f" stroke-width="2" opacity="1"/><rect x="278" y="198" width="70" height="24" rx="0" fill="#28547f" stroke="#20201f" stroke-width="2" opacity="1"/>
  </g>
  <g stroke="#20201f" stroke-width="2">
    <rect x="0" y="0" width="116" height="12" fill="#28547f"/>
    <rect x="116" y="0" width="174" height="12" fill="#fffaf0"/>
    <rect x="290" y="0" width="70" height="12" fill="#28547f"/>
    <rect x="360" y="0" width="120" height="12" fill="#e0b53f"/>
  </g>
</svg>
