<svg xmlns="http://www.w3.org/2000/svg" viewBox="0 0 480 300">
  <rect width="480" height="300" fill="#fffaf0"/>
  <path d="M18 52 H462 M18 250 H462" stroke="#eee5d3" stroke-width="2"/>
  <g stroke-linecap="round" stroke-linejoin="round">
    <polygon points="55,88 157,57 219,101 117,133" fill="#eee5d3" stroke="#20201f" stroke-width="3" opacity="1"/><polygon points="55,88 117,133 117,225 55,181" fill="#28547f" stroke="#20201f" stroke-width="3" opacity="0.55"/><polygon points="117,133 219,101 219,192 117,225" fill="#e0b53f" stroke="#20201f" stroke-width="3" opacity="0.65"/><line x1="89" y1="92" x2="188" y2="68" stroke="#777166" stroke-width="1" opacity="1"/><line x1="55" y1="119" x2="117" y2="164" stroke="#777166" stroke-width="1" opacity="1"/><line x1="123" y1="107" x2="219" y2="90" stroke="#777166" stroke-width="1" opacity="1"/><line x1="55" y1="150" x2="117" y2="195" stroke="#777166" stroke-width="1" opacity="1"/><line x1="227" y1="132" x2="245" y2="132" stroke="#20201f" stroke-width="4" opacity="1"/><polygon points="245,132 235.79891085093294,138.0282633047106 235.79891085093294,125.9717366952894" fill="#20201f" stroke="#20201f" stroke-width="1" opacity="1"/><rect x="253" y="91" width="72" height="72" rx="0" fill="#b53a2e" stroke="#20201f" stroke-width="3" opacity="0.72"/><line x1="277" y1="91" x2="277" y2="163" stroke="#20201f" stroke-width="1" opacity="1"/><line x1="253" y1="115" x2="325" y2="115" stroke="#20201f" stroke-width="1" opacity="1"/><line x1="301" y1="91" x2="301" y2="163" stroke="#20201f" stroke-width="1" opacity="1"/><line x1="253" y1="139" x2="325" y2="139" stroke="#20201f" stroke-width="1" opacity="1"/><line x1="334" y1="132" x2="359" y2="132" stroke="#20201f" stroke-width="4" opacity="1"/><polygon points="359,132 349.79891085093294,138.0282633047106 349.79891085093294,125.9717366952894" fill="#20201f" stroke="#20201f" stroke-width="1" opacity="1"/><rect x="370" y="84" width="69" height="96" rx="0" fill="#fffaf0" stroke="#20201f" stroke-width="3" opacity="1"/><rect x="382" y="96" width="20" height="20" rx="0" fill="#28547f" stroke="none" stroke-width="0" opacity="1"/><rect x="409" y="96" width="20" height="20" rx="0" fill="#e0b53f" stroke="none" stroke-width="0" opacity="1"/><rect x="382" y="123" width="20" height="20" rx="0" fill="#e0b53f" stroke="none" stroke-width="0" opacity="1"/><rect x="409" y="123" width="20" height="20" rx="0" fill="#b53a2e" stroke="none" stroke-width="0" opacity="1"/><rect x="382" y="150" width="20" height="20" rx="0" fill="#b53a2e" stroke="none" stroke-width="0" opacity="1"/><rect x="409" y="150" width="20" height="20" rx="0" fill="#28547f" stroke="none" stroke-width="0" opacity="1"/>
  </g>
  <g stroke="#20201f" stroke-width="2">
    <rect x="0" y="0" width="116" height="12" fill="#28547f"/>
    <rect x="116" y="0" width="174" height="12" fill="#fffaf0"/>
    <rect x="290" y="0" width="70" height="12" fill="#28547f"/>
    <rect x="360" y="0" width="120" height="12" fill="#b53a2e"/>
  </g>
</svg>
