<?xml version="1.0" encoding="UTF-8" standalone="no"?>
<svg
   xmlns:dc="http://purl.org/dc/elements/1.1/"
   xmlns:cc="http://creativecommons.org/ns#"
   xmlns:rdf="http://www.w3.org/1999/02/22-rdf-syntax-ns#"
   xmlns:svg="http://www.w3.org/2000/svg"
   xmlns="http://www.w3.org/2000/svg"
   viewBox="0 0 816 1056"
   height="1056"
   width="816"
   xml:space="preserve"
   id="svg2"
   version="1.1"><metadata
     id="metadata8"><rdf:RDF><cc:Work
         rdf:about=""><dc:format>image/svg+xml</dc:format><dc:type
           rdf:resource="http://purl.org/dc/dcmitype/StillImage" /></cc:Work></rdf:RDF></metadata><defs
     id="defs6" /><g
     transform="matrix(1.3333333,0,0,-1.3333333,0,1056)"
     id="g10"><g
       transform="translate(133.768,666.8)"
       id="g12"><path
         id="path14"
         style="fill:none;stroke:#000000;stroke-width:0.79699999;stroke-linecap:butt;stroke-linejoin:miter;stroke-miterlimit:10;stroke-dasharray:none;stroke-opacity:1"
         d="M 0,0 H 400.568" /></g><text
       id="text18"
       style="font-variant:normal;font-weight:normal;font-size:9.96259975px;font-family:TeXGyrePagellaX;-inkscape-font-specification:TeXGyrePagellaX-Regular;writing-mode:lr-tb;fill:#000000;fill-opacity:1;fill-rule:nonzero;stroke:none"
       transform="matrix(1,0,0,-1,139.99,655.244)"><tspan
         id="tspan16"
         y="0"
         x="0 5.7484202 10.520506 15.501805 31.641218 38.7047 41.603817 44.851624 49.832924 53.080734 55.979851 61.41943 176.83615 184.58705 190.57457 196.5621 200.49733 205.9369 210.9182 215.3416 257.77231 263.85947 269.04999 276.96027 281.73236 288.15823 293.66757 299.10715 305.11459 310.91281 328.95508 336.3573 342.34482 348.33234 353.10443 359.5303 365.03961 370.47922 376.48666 382.28488">YearCitationApproachLowerboundUpperbound</tspan></text>
<g
       transform="translate(133.768,649.693)"
       id="g20"><path
         id="path22"
         style="fill:none;stroke:#000000;stroke-width:0.498;stroke-linecap:butt;stroke-linejoin:miter;stroke-miterlimit:10;stroke-dasharray:none;stroke-opacity:1"
         d="M 0,0 H 400.568" /></g><text
       id="text42"
       style="font-variant:normal;font-weight:normal;font-size:9.96259975px;font-family:TeXGyrePagellaX;-inkscape-font-specification:TeXGyrePagellaX-Regular;writing-mode:lr-tb;fill:#000000;fill-opacity:1;fill-rule:nonzero;stroke:none"
       transform="matrix(1,0,0,-1,139.746,638.287)"><tspan
         id="tspan24"
         y="0"
         x="0 4.9812999 9.9625998 14.9439 31.88032 39.481785 44.921364 51.008511 57.095661 62.076962 65.862747 74.440544 79.212631 84.951088 89.932388 92.831505 182.18607 191.61069 196.59198 202.39021 208.39766 213.37897 285.13959 353.92136 358.90268">2002Goddardetal.Manual923</tspan><tspan
         id="tspan26"
         y="11.955"
         x="0 4.9812999 9.9625998 14.9439 31.88032 37.110683 41.534081 47.332314 55.242619 60.014702 65.812935 180.3131 187.71532 193.51355 198.8535 204.04401 212.35281 285.13959 353.92136 358.90268">2002SchwenkUnkown922</tspan><tspan
         id="tspan28"
         y="23.91"
         x="0 4.9812999 9.9625998 14.9439 31.88032 37.220272 40.119389 45.100689 47.999805 55.471756 60.243843 65.9823 70.9636 73.862717 154.15131 163.57593 168.55724 174.35547 180.36292 185.34421 190.73398 199.26196 206.32544 211.76503 220.36275 226.35027 232.35773 235.60553 240.37761 282.64893 287.63022 353.92136 358.90268">2009Fialaetal.Manual+Computer1023</tspan><tspan
         id="tspan30"
         y="35.865002"
         x="0 4.9812999 9.9625998 14.9439 31.88032 37.110683 42.550266 48.557713 54.096916 59.078217 64.467987 69.449287 75.24752 83.825317 92.114197 97.55378 100.4529 106.46034 152.40785 157.63821 160.53734 169.3343 175.34177 178.24088 183.22218 186.46999 191.24207 199.81987 207.57077 213.369 219.16724 223.93932 228.92062 231.81973 234.71886 240.51709 282.64893 287.63022 353.92136 358.90268">2010SoukalandHolubSimulatedAnnealing1017</tspan><tspan
         id="tspan32"
         y="47.820999"
         x="0 4.9812999 9.9625998 14.9439 31.88032 37.967468 43.6063 47.681004 50.92881 55.700897 58.600014 66.888893 71.66098 77.399437 82.380737 85.279854 153.41408 159.50122 163.53607 169.54353 172.79134 180.05408 185.34421 190.78378 194.71901 199.14241 206.40515 212.42256 216.35779 221.79736 227.48601 231.27179 236.2531 282.64893 287.63022 353.92136 358.90268">2010Eksteinetal.BruteForceProgram1217</tspan><tspan
         id="tspan34"
         y="59.776001"
         x="0 4.9812999 9.9625998 14.9439 31.88032 41.304939 46.28624 50.221466 53.469273 56.368389 64.657272 69.429359 75.167816 80.149117 83.048233 175.83989 180.67175 187.72527 196.323 200.54713 205.98672 208.68658 213.91695 218.68903 282.64893 287.63022 353.92136 358.90268">2015Martinetal.SATsolver1316</tspan><tspan
         id="tspan36"
         y="71.731003"
         x="0 4.9812999 9.9625998 14.9439 31.88032 41.304939 46.28624 50.221466 53.469273 56.368389 64.657272 69.429359 75.167816 80.149117 83.048233 175.83989 180.67175 187.72527 196.323 200.54713 205.98672 208.68658 213.91695 218.68903 282.64893 287.63022 353.92136 358.90268">2017Martinetal.SATsolver1315</tspan><tspan
         id="tspan38"
         y="83.685997"
         x="0 4.9812999 9.9625998 14.9439 31.88032 37.110683 43.118134 48.627449 53.399536 57.334763 61.758156 66.739456 70.9636 75.735687 80.716988 86.724434 94.355782 99.337082 105.13531 113.71312 122.002 126.77409 132.78154 135.68065 175.83989 180.67175 187.72527 196.323 200.54713 205.98672 208.68658 213.91695 218.68903 282.64893 287.63022 353.92136 358.90268">2022SubercaseauxandHeuleSATsolver1415</tspan><tspan
         id="tspan40"
         y="95.640999"
         x="0 4.9812999 9.9625998 14.9439">2022</tspan></text>
<text
       id="text46"
       style="font-variant:normal;font-weight:bold;font-size:9.96259975px;font-family:TeXGyrePagellaX;-inkscape-font-specification:TeXGyrePagellaX-Bold;writing-mode:lr-tb;fill:#000000;fill-opacity:1;fill-rule:nonzero;stroke:none"
       transform="matrix(1,0,0,-1,171.626,542.646)"><tspan
         id="tspan44"
         y="0"
         x="0 6.6450543 12.732203 16.049749 22.963793 27.945093 32.069611 35.387154 38.7047 43.128094 46.445641">Thisarticle</tspan></text>
<text
       id="text50"
       style="font-variant:normal;font-weight:normal;font-size:9.96259975px;font-family:TeXGyrePagellaX;-inkscape-font-specification:TeXGyrePagellaX-Regular;writing-mode:lr-tb;fill:#000000;fill-opacity:1;fill-rule:nonzero;stroke:none"
       transform="matrix(1,0,0,-1,315.586,542.646)"><tspan
         id="tspan48"
         y="0"
         x="0 4.831861 11.885382 20.483105 24.707249 30.146828 32.846691 38.077057 42.849144 106.80904 111.79034 178.08148 183.06277">SATsolver1515</tspan></text>
<g
       transform="translate(133.768,536.945)"
       id="g52"><path
         id="path54"
         style="fill:none;stroke:#000000;stroke-width:0.79699999;stroke-linecap:butt;stroke-linejoin:miter;stroke-miterlimit:10;stroke-dasharray:none;stroke-opacity:1"
         d="M 0,0 H 400.568" /></g></g></svg>